<svg width="207" height="45" viewBox="0 0 207 45" fill="none" xmlns="http://www.w3.org/2000/svg">
<path d="M0.133333 2C0.133333 3.03093 0.969069 3.86667 2 3.86667C3.03093 3.86667 3.86667 3.03093 3.86667 2C3.86667 0.969069 3.03093 0.133333 2 0.133333C0.969069 0.133333 0.133333 0.969069 0.133333 2ZM0.133333 43C0.133333 44.0309 0.969069 44.8667 2 44.8667C3.03093 44.8667 3.86667 44.0309 3.86667 43C3.86667 41.9691 3.03093 41.1333 2 41.1333C0.969069 41.1333 0.133333 41.9691 0.133333 43ZM202.499 15.3718H12V16.0718H202.499V15.3718ZM1.65 25.7218V43H2.35V25.7218H1.65ZM8.28282 8.63282H202.062V7.93282H8.28282V8.63282ZM12 15.3718C6.28386 15.3718 1.65 20.0056 1.65 25.7218H2.35C2.35 20.3922 6.67046 16.0718 12 16.0718V15.3718ZM205.65 12.2211C205.65 13.9611 204.239 15.3718 202.499 15.3718V16.0718C204.626 16.0718 206.35 14.3477 206.35 12.2211H205.65ZM1.65 2C1.65 5.6632 4.61961 8.63282 8.28282 8.63282V7.93282C5.00621 7.93282 2.35 5.2766 2.35 2H1.65ZM206.35 12.2211C206.35 9.85274 204.43 7.93282 202.062 7.93282V8.63282C204.043 8.63282 205.65 10.2393 205.65 12.2211H206.35Z" fill="url(#paint0_linear_1835_160)"/>
<defs>
<linearGradient id="paint0_linear_1835_160" x1="2" y1="22.5" x2="206" y2="22.5" gradientUnits="userSpaceOnUse">
<stop stop-color="#16F8F8"/>
<stop offset="1" stop-color="#3C19D5"/>
</linearGradient>
</defs>
</svg>
